<?xml version="1.0" encoding="utf-8"?>
<!-- Generator: Adobe Illustrator 25.4.1, SVG Export Plug-In . SVG Version: 6.00 Build 0)  -->
<svg version="1.1" id="Layer_1" xmlns="http://www.w3.org/2000/svg" xmlns:xlink="http://www.w3.org/1999/xlink" x="0px" y="0px"
	 viewBox="0 0 240 240" style="enable-background:new 0 0 240 240;" xml:space="preserve">
<style type="text/css">
	.st0{fill:#D3D3D3;}
</style>
<g>
	<path class="st0" d="M120,0C53.8,0,0,53.8,0,120c0,66.2,53.8,120,120,120c66.2,0,120-53.8,120-120C240,53.8,186.2,0,120,0z
		 M120,220.8c-55.6,0-100.8-45.2-100.8-100.8S64.4,19.2,120,19.2S220.8,64.4,220.8,120S175.6,220.8,120,220.8z"/>
	<path class="st0" d="M163.3,110.4h-33.7V76.7c0-5.3-4.3-9.6-9.6-9.6c-5.3,0-9.6,4.3-9.6,9.6v33.7H76.7c-5.3,0-9.6,4.3-9.6,9.6
		c0,5.3,4.3,9.6,9.6,9.6h33.7v33.7c0,5.3,4.3,9.6,9.6,9.6c5.3,0,9.6-4.3,9.6-9.6v-33.7h33.7c5.3,0,9.6-4.3,9.6-9.6
		C172.9,114.7,168.6,110.4,163.3,110.4z"/>
</g>
</svg>
