<?xml version="1.0" encoding="utf-8"?>
<!-- Generator: Adobe Illustrator 25.4.1, SVG Export Plug-In . SVG Version: 6.00 Build 0)  -->
<svg version="1.1" id="Layer_1" xmlns="http://www.w3.org/2000/svg" xmlns:xlink="http://www.w3.org/1999/xlink" x="0px" y="0px"
	 viewBox="0 0 640 480" style="enable-background:new 0 0 640 480;" xml:space="preserve">
<path d="M514.9,178c-8.1-0.3-16,0.2-23.9,1.3c-7-33.1-23.7-63.5-48.4-87.7c-34.2-33.3-79.8-50.9-127.7-49.1
	c-41.6,1.6-81.4,18.3-111.8,46.8c-26.2,24.6-43.7,56-50.9,90.4c-9.5-1.6-19.4-2.3-29.4-1.7C53.3,181.7-1.4,240.8,0,310.4
	c1.5,70.3,59.1,127.1,129.8,127.1l380.3,0c73.9,0,133.6-62.1,129.7-136.8C636.3,234,581.7,180.4,514.9,178z M227.2,221.7
	c-7.8-8.9-16.8-16.6-26.6-23c8.3-59.3,59.7-105.4,121-105.4c66.8,0,120.5,52.3,122.2,118.9c0,1.1,0,2.2,0,3.3
	c0,14.6-2.5,28.8-7.5,42.2c-2,5.4,1.7,11.2,7.4,11.5l35,2.2c3.9,0.2,7.5-2.3,8.7-6c3.4-11.4,5.7-23.1,6.7-35.1
	c4.7-1,9.5-1.5,14.4-1.6c41.9-0.8,77.6,31.9,80.3,73.7c3,45.9-33.5,84.2-78.8,84.2l-380.3,0c-43.4,0-78.7-35.2-78.9-78.5
	c-0.3-42,33.1-77.3,75.1-79.3c23.1-1.1,44.7,7.7,60.2,23.5c2.8,2.9,7.3,3.3,10.7,1.1l28.7-19C229.8,231.6,230.6,225.6,227.2,221.7z"
	/>
</svg>
