<?xml version="1.0" encoding="utf-8"?>
<!-- Generator: Adobe Illustrator 25.4.1, SVG Export Plug-In . SVG Version: 6.00 Build 0)  -->
<svg version="1.1" id="Layer_1" xmlns="http://www.w3.org/2000/svg" xmlns:xlink="http://www.w3.org/1999/xlink" x="0px" y="0px"
	 viewBox="0 0 640 480" style="enable-background:new 0 0 640 480;" xml:space="preserve">
<style type="text/css">
	.st0{fill:#3789C6;}
</style>
<path d="M510.2,437.6c73.7,0,133.3-61.7,129.7-136.2c-3.3-67.4-57-120.6-124.4-123.3c-8.3-0.3-16.4,0.1-24.4,1.3
	c-7-33.1-23.7-63.5-48.4-87.7c-34.2-33.4-79.9-51-127.9-49.1c-41.6,1.6-81.2,18.3-111.6,46.8c-26.2,24.6-43.7,56-50.9,90.4
	c-9.5-1.6-19.4-2.3-29.4-1.7C53.7,181.7-0.7,239.8,0,309c0.7,71,58.7,128.5,129.8,128.5l56.1,0c2.8,0,5-2.2,5-5v-40.9
	c0-2.8-2.2-5-5-5l-56.1,0c-43.9,0-79.5-36-78.9-80c0.6-42,34.6-76.6,76.6-77.8c22.5-0.6,43.5,8.1,58.7,23.5
	c2.8,2.9,7.3,3.3,10.6,1.1l28.7-19c4.3-2.8,5.1-8.8,1.7-12.7c-7.8-8.9-16.8-16.6-26.6-22.9c8.3-59.3,59.7-105.4,121-105.4
	c66.8,0,120.5,52.3,122.2,118.9c0,1.1,0,2.2,0,3.3c0,14.6-2.5,28.8-7.5,42.3c-2,5.4,1.7,11.1,7.4,11.5l35,2.2c3.9,0.2,7.5-2.2,8.6-6
	c3.4-11.4,5.7-23.2,6.7-35.2c4.1-0.8,8.3-1.4,12.5-1.5c42.2-1.8,78.8,30.3,82.1,72.4c3.7,46.4-33,85.4-78.7,85.4l-78.1,0
	c-2.8,0-5,2.2-5,5v40.9c0,2.8,2.2,5,5,5L510.2,437.6z"/>
<path class="st0" d="M356,458.7c-28.4,28.4-74.5,28.4-102.9,0s-28.4-74.5,0-102.9c24.4-24.4,125.4-49.4,149.6-52.2
	c3.2-0.4,5.9,2.3,5.5,5.5C405.4,333.3,380.4,434.3,356,458.7z"/>
</svg>
