<?xml version="1.0" encoding="utf-8"?>
<!-- Generator: Adobe Illustrator 25.4.1, SVG Export Plug-In . SVG Version: 6.00 Build 0)  -->
<svg version="1.1" id="Layer_1" xmlns="http://www.w3.org/2000/svg" xmlns:xlink="http://www.w3.org/1999/xlink" x="0px" y="0px"
	 viewBox="0 0 640 480" style="enable-background:new 0 0 640 480;" xml:space="preserve">
<style type="text/css">
	.st0{fill:#FDC400;}
</style>
<g>
	<g>
		<path class="st0" d="M363,460.9l-9.2-46.4c-1.7-8.7,3.4-17.3,11.9-19.9c0.1,0,0.2-0.1,0.3-0.1c8.5-2.6,17.6,1.7,21,9.9l18.1,43.7
			c3.8,9.2-0.9,19.9-10.5,23c-3.4,1.1-6.8,2.1-10.2,3.1C374.8,477,364.9,470.8,363,460.9z M443.9,427.4l-26.3-39.3
			c-4.9-7.4-3.5-17.3,3.4-23c0.1-0.1,0.2-0.2,0.3-0.2c6.9-5.7,16.9-5.2,23.2,1.1l33.4,33.4c7.1,7.1,6.7,18.8-0.9,25.3
			c-2.6,2.3-5.3,4.5-8.1,6.6C461,437.6,449.5,435.7,443.9,427.4z M505.8,365.5l-39.3-26.3c-7.4-4.9-9.8-14.7-5.6-22.5
			c0.1-0.1,0.1-0.2,0.2-0.3c4.2-7.8,13.6-11.2,21.8-7.8l43.7,18.1c9.3,3.8,13.4,14.8,8.8,23.7c-1.6,3.1-3.2,6.2-4.9,9.2
			C525.5,368.4,514.2,371.1,505.8,365.5z M495.7,240.3l46.9,0c10.2,0,18.2,8.8,17.2,18.9l-0.9,9.8c-1,10.2-10.5,17.3-20.6,15.3
			l-46-9.1c-8.7-1.7-14.7-9.8-13.8-18.6l0.1-0.7C479.3,247,486.8,240.3,495.7,240.3z M473,193.8c0-0.1-0.1-0.2-0.1-0.3
			c-2.6-8.5,1.7-17.6,9.9-21l43.6-18.2c9.2-3.9,19.9,0.9,23,10.4c1.1,3.4,2.1,6.8,3.1,10.2c2.7,9.6-3.5,19.5-13.3,21.5l-46.3,9.3
			C484.2,207.5,475.6,202.3,473,193.8z M443.4,138.6c-0.1-0.1-0.2-0.2-0.2-0.3c-5.7-6.9-5.2-16.9,1.1-23.2l33.4-33.5
			c7.1-7.1,18.8-6.7,25.3,0.9c2.3,2.6,4.5,5.3,6.6,8.1c6.2,7.9,4.4,19.4-4,25L466.4,142C459,146.9,449.1,145.5,443.4,138.6z
			 M394.9,98.8c-0.1-0.1-0.2-0.1-0.3-0.2c-7.8-4.2-11.2-13.6-7.8-21.8l18-43.7c3.8-9.3,14.8-13.4,23.7-8.9c3.1,1.6,6.2,3.2,9.2,4.9
			c8.8,4.9,11.4,16.3,5.9,24.6l-26.2,39.3C412.4,100.5,402.7,103,394.9,98.8z M251.1,77l-18.2-43.6c-3.8-9.2,0.9-19.9,10.4-23
			c3.4-1.1,6.8-2.1,10.2-3.1c9.6-2.7,19.5,3.5,21.5,13.3l9.2,46.3c1.7,8.7-3.4,17.3-11.9,19.9c-0.1,0-0.2,0.1-0.3,0.1
			C263.6,89.5,254.5,85.2,251.1,77z M362.3,21.6l-9,45.7c-1.7,8.8-9.8,14.8-18.8,14h0c-8.9-0.9-15.8-8.4-15.8-17.4l0-46.6
			c0-10.3,8.9-18.3,19.1-17.3l9,0.9C357.1,1.9,364.3,11.5,362.3,21.6z"/>
		<path class="st0" d="M196.1,52.6l26.3,39.3c4.9,7.4,3.5,17.3-3.4,23c-0.1,0.1-0.2,0.2-0.3,0.2c-6.9,5.7-16.9,5.2-23.2-1.1
			l-33.4-33.4c-7.1-7.1-6.7-18.8,0.9-25.3c2.6-2.3,5.3-4.5,8.1-6.6C179,42.4,190.5,44.3,196.1,52.6z M134.2,114.5l39.3,26.3
			c7.4,4.9,9.8,14.7,5.6,22.5c-0.1,0.1-0.1,0.2-0.2,0.3c-4.2,7.8-13.6,11.2-21.8,7.8l-43.7-18.1c-9.3-3.8-13.4-14.8-8.8-23.7
			c1.6-3.1,3.2-6.2,4.9-9.2C114.5,111.6,125.8,108.9,134.2,114.5z M144.3,239.7l-46.9,0c-10.2,0-18.2-8.8-17.2-18.9l0.9-9.8
			c1-10.2,10.5-17.3,20.6-15.3l46,9.1c8.7,1.7,14.7,9.8,13.8,18.6l-0.1,0.7C160.7,233,153.2,239.7,144.3,239.7z M167,286.2
			c0,0.1,0.1,0.2,0.1,0.3c2.6,8.5-1.7,17.6-9.9,21l-43.6,18.2c-9.2,3.9-19.9-0.9-23-10.4c-1.1-3.4-2.1-6.8-3.1-10.2
			c-2.7-9.6,3.5-19.5,13.3-21.5l46.3-9.3C155.8,272.5,164.4,277.7,167,286.2z M196.6,341.4c0.1,0.1,0.2,0.2,0.2,0.3
			c5.7,6.9,5.2,16.9-1.1,23.2l-33.4,33.5c-7.1,7.1-18.8,6.7-25.3-0.9c-2.3-2.6-4.5-5.3-6.6-8.1c-6.2-7.9-4.4-19.4,4-25l39.2-26.4
			C181,333.1,190.9,334.5,196.6,341.4z M245.1,381.2c0.1,0.1,0.2,0.1,0.3,0.2c7.8,4.2,11.2,13.6,7.8,21.8l-18,43.7
			c-3.8,9.3-14.8,13.4-23.7,8.9c-3.1-1.6-6.2-3.2-9.2-4.9c-8.8-4.9-11.4-16.3-5.9-24.6l26.2-39.3C227.6,379.5,237.3,377,245.1,381.2
			z M277.7,458.4l9-45.7c1.7-8.8,9.8-14.8,18.8-14h0c8.9,0.9,15.8,8.4,15.8,17.4l0,46.6c0,10.3-8.9,18.3-19.1,17.3l-9-0.9
			C282.9,478.1,275.7,468.5,277.7,458.4z"/>
	</g>
	<circle class="st0" cx="320" cy="240" r="124.6"/>
</g>
</svg>
